<?xml version="1.0" encoding="UTF-8"?>
<svg id="Layer_1" data-name="Layer 1" xmlns="http://www.w3.org/2000/svg" viewBox="0 0 42.81 29.47">
  <defs>
    <style>
      .cls-1, .cls-2 {
        fill: #fff;
      }

      .cls-2 {
        fill-rule: evenodd;
      }
    </style>
  </defs>
  <path class="cls-2" d="M42.78,13.94c-.87-10.56-16.54-7.64-16.54-7.64-.32-.59,.57-2.42,1.71-6.3-1.41,.42-1.46,.52-1.98,1.41-.59,1.09-1.21,2.18-1.8,3.26-.59,1.09-1.19,2.18-1.81,3.26-.96,.37-1.95,.72-2.94,1.09-2.7,.94-2,2.54,.32,1.85,.96-.25,1.95-.5,2.92-.74,.79,.64,1.61,1.26,2.42,1.9,.82,.67,1.61,1.31,2.42,1.95,1.24,1.01,.84,.87,2.52,.32h0c-2.25-2.99-3.58-4.15-3.44-4.89,11.47-4.8,16.96,6.18,7.15,7.19-6.97,.69-17.36-3.61-24.8-3.49-7,.12-11.45,7.47-7.37,9.49,2.92,1.43,9.32,.4,9.74,.94,.47,.59-.22,2.22-.91,5.91h0c1.76-.25,1.48,.05,2.13-1.38,.44-.94,.89-1.88,1.31-2.82,.45-.94,.89-1.88,1.34-2.79,.99-.22,1.95-.42,2.94-.62,2.4-.42,2.32-2.15-.54-1.8-1.04,.12-2.08,.22-3.12,.32-1.01-.72-2.03-1.43-3.07-2.13-1.01-.72-2.03-1.43-3.04-2.13-.87-.59-.94-.67-2.4-.4,2.75,2.97,4.35,4.23,4.33,4.89-.05,1.66-4.28,1.63-6.78,.35-4.52-2.32,.1-7.32,5.66-6.43,3.49,.57,8.06,2.4,12.91,4.05,4.35,1.51,8.7,2.89,12.19,3.14,4.92,.39,8.93-2.82,8.53-7.79h0Z"/>
  <g>
    <path class="cls-1" d="M15.52,29.46c-.07,0-.13-.02-.16-.07s-.04-.11-.03-.2l.51-3.26h-1.21c-.07,0-.12-.01-.16-.04s-.06-.07-.06-.12c0-.07,.02-.13,.07-.17,.04-.04,.1-.06,.17-.06h2.9c.07,0,.12,.01,.16,.04,.04,.03,.05,.07,.05,.12,0,.07-.02,.13-.06,.17-.04,.04-.1,.06-.17,.06h-1.25l-.52,3.3c0,.07-.03,.13-.07,.17-.04,.04-.1,.06-.18,.06Z"/>
    <path class="cls-1" d="M17.39,29.46c-.07,0-.12-.02-.15-.07s-.04-.11-.03-.19l.36-2.28c.01-.07,.04-.13,.08-.16s.1-.05,.17-.05,.12,.02,.15,.07,.04,.11,.03,.19l-.07,.42h-.06c.08-.22,.21-.39,.39-.51s.39-.18,.61-.19c.08,0,.14,0,.17,.03,.03,.02,.04,.06,.04,.12,0,.08-.02,.13-.05,.17-.04,.04-.1,.06-.18,.07h-.11c-.29,.03-.5,.12-.63,.27-.13,.15-.21,.35-.25,.59l-.21,1.3c0,.07-.03,.12-.08,.16-.04,.04-.1,.05-.18,.05Z"/>
    <path class="cls-1" d="M20.01,29.47c-.15,0-.3-.04-.43-.1-.13-.07-.24-.17-.32-.29-.08-.12-.12-.26-.12-.41,0-.19,.05-.34,.16-.46s.27-.2,.49-.26c.22-.05,.51-.08,.86-.08h.44l-.04,.29h-.34c-.28,0-.5,.01-.67,.04s-.28,.08-.35,.15c-.07,.07-.1,.17-.1,.29,0,.16,.05,.28,.16,.37,.11,.08,.23,.13,.37,.13s.26-.03,.38-.09,.21-.15,.29-.26c.08-.12,.13-.25,.16-.41l.1-.67c.04-.21,0-.37-.08-.48-.09-.11-.25-.17-.49-.17-.14,0-.26,.01-.38,.04-.12,.03-.24,.07-.36,.14-.05,.03-.09,.04-.13,.03-.04,0-.07-.02-.1-.05s-.04-.06-.04-.1c0-.04,0-.07,.03-.11,.02-.04,.06-.07,.12-.1,.14-.08,.29-.13,.45-.17,.16-.04,.32-.05,.48-.05,.25,0,.45,.05,.6,.14,.15,.09,.25,.22,.3,.39,.05,.17,.06,.37,.03,.59l-.23,1.41c0,.07-.03,.13-.07,.17-.04,.04-.1,.05-.17,.05s-.12-.02-.15-.07-.04-.11-.03-.19l.07-.45,.04,.05c-.05,.15-.12,.27-.22,.37-.1,.1-.21,.17-.33,.22-.12,.05-.25,.07-.38,.07Z"/>
    <path class="cls-1" d="M23.01,29.46c-.08,0-.14-.02-.18-.06-.04-.04-.07-.1-.1-.17l-.6-2.2c-.01-.06-.02-.12,0-.17,.01-.05,.03-.08,.07-.11,.04-.03,.08-.04,.14-.04,.06,0,.11,.01,.14,.04,.03,.03,.06,.08,.08,.16l.54,2.18h-.15l1.28-2.23c.03-.05,.07-.09,.1-.12,.03-.02,.08-.04,.14-.04s.11,.01,.14,.04,.05,.06,.05,.11c0,.04-.01,.09-.05,.15l-1.34,2.27c-.04,.06-.08,.11-.12,.14s-.1,.04-.16,.04Z"/>
    <path class="cls-1" d="M26.08,29.47c-.25,0-.47-.05-.66-.14-.19-.09-.33-.23-.43-.41-.1-.18-.15-.39-.15-.63,0-.29,.06-.55,.18-.79s.28-.43,.5-.58c.21-.15,.47-.22,.76-.22,.21,0,.38,.04,.53,.11,.14,.07,.25,.17,.34,.3,.08,.12,.14,.27,.17,.43,.03,.16,.03,.32,.01,.49,0,.06-.02,.1-.05,.12-.03,.02-.07,.03-.12,.03h-1.95l.04-.29h1.8l-.1,.07c.03-.17,.02-.33-.02-.47-.04-.14-.11-.25-.21-.33-.11-.08-.25-.13-.44-.13-.2,0-.36,.04-.49,.13-.13,.09-.24,.2-.31,.34s-.12,.28-.15,.43l-.02,.13c-.05,.31,0,.56,.14,.75,.15,.19,.37,.29,.68,.29,.13,0,.26-.02,.38-.05,.12-.03,.24-.09,.35-.16,.05-.03,.1-.05,.13-.05,.04,0,.07,.01,.09,.04,.02,.02,.04,.05,.04,.09,0,.04,0,.07-.02,.11-.02,.04-.05,.07-.09,.11-.12,.09-.27,.15-.44,.2-.17,.05-.33,.07-.48,.07Z"/>
    <path class="cls-1" d="M28.54,29.47c-.26,0-.45-.08-.57-.23-.12-.16-.16-.39-.11-.69l.45-2.82c.01-.07,.04-.13,.08-.17,.04-.04,.1-.05,.17-.05,.07,0,.12,.02,.15,.07,.03,.05,.04,.11,.03,.2l-.44,2.78c-.03,.19-.02,.33,.04,.42,.06,.08,.17,.13,.31,.13,.05,0,.09,0,.12,0,.03,0,.05,0,.07,0,.03,0,.05,0,.07,.03,.01,.02,.02,.05,.02,.1,0,.07-.02,.12-.05,.16-.03,.04-.08,.07-.13,.08-.03,0-.07,0-.11,.01-.04,0-.08,0-.11,0Z"/>
    <path class="cls-1" d="M31.07,29.43c-.07,0-.12-.02-.15-.06-.03-.04-.04-.1-.04-.17l.56-3.49c.01-.07,.04-.12,.08-.15,.04-.03,.09-.05,.15-.05,.06,0,.1,.01,.13,.04s.06,.07,.08,.13l1.03,2.82h-.15l1.96-2.85s.07-.08,.11-.1c.04-.02,.08-.03,.14-.03,.07,0,.12,.02,.15,.06s.04,.1,.03,.17l-.56,3.49c0,.07-.03,.12-.07,.15-.04,.03-.09,.05-.15,.05s-.12-.02-.15-.06c-.04-.04-.05-.1-.04-.17l.48-3.06h.13l-1.8,2.61s-.05,.07-.08,.08-.07,.03-.11,.03c-.05,0-.09-.01-.12-.04-.03-.02-.06-.06-.08-.11l-.96-2.56h.12l-.49,3.09c0,.07-.03,.12-.07,.15-.04,.03-.09,.05-.15,.05Z"/>
    <path class="cls-1" d="M36.37,29.47c-.15,0-.3-.04-.43-.1-.13-.07-.24-.17-.32-.29-.08-.12-.12-.26-.12-.41,0-.19,.05-.34,.16-.46s.27-.2,.49-.26c.22-.05,.51-.08,.86-.08h.44l-.04,.29h-.34c-.28,0-.5,.01-.67,.04s-.28,.08-.35,.15c-.07,.07-.1,.17-.1,.29,0,.16,.05,.28,.16,.37,.11,.08,.23,.13,.37,.13s.26-.03,.38-.09,.21-.15,.29-.26c.08-.12,.13-.25,.16-.41l.1-.67c.04-.21,0-.37-.08-.48-.09-.11-.25-.17-.49-.17-.14,0-.26,.01-.38,.04-.12,.03-.24,.07-.36,.14-.05,.03-.09,.04-.13,.03-.04,0-.07-.02-.1-.05s-.04-.06-.04-.1c0-.04,0-.07,.03-.11,.02-.04,.06-.07,.12-.1,.14-.08,.29-.13,.45-.17,.16-.04,.32-.05,.48-.05,.25,0,.45,.05,.6,.14,.15,.09,.25,.22,.3,.39,.05,.17,.06,.37,.03,.59l-.23,1.41c0,.07-.03,.13-.07,.17-.04,.04-.1,.05-.17,.05s-.12-.02-.15-.07-.04-.11-.03-.19l.07-.45,.04,.05c-.05,.15-.12,.27-.22,.37-.1,.1-.21,.17-.33,.22-.12,.05-.25,.07-.38,.07Z"/>
    <path class="cls-1" d="M39.5,29.47c-.21,0-.38-.04-.51-.12-.13-.08-.23-.19-.28-.34-.05-.14-.07-.31-.04-.51l.23-1.41h-.34c-.06,0-.11-.01-.15-.04-.03-.03-.05-.06-.05-.11,0-.07,.02-.12,.07-.15,.04-.03,.1-.05,.17-.05h.36l.1-.65c.01-.07,.04-.12,.08-.16,.04-.04,.1-.05,.17-.05,.07,0,.13,.02,.16,.07,.03,.04,.04,.11,.03,.19l-.09,.61h.66c.07,0,.12,.01,.15,.03,.03,.02,.05,.06,.05,.11,0,.06-.02,.11-.06,.15-.04,.04-.09,.06-.16,.06h-.7l-.21,1.36c-.03,.22,0,.39,.07,.48s.21,.15,.38,.15c.08,0,.14,0,.18-.02,.04-.01,.08-.02,.11-.02,.04,0,.06,0,.08,.03,.02,.02,.03,.06,.03,.11,0,.07-.01,.13-.04,.16-.02,.03-.06,.06-.11,.08-.04,.01-.09,.03-.16,.04-.06,0-.12,.01-.17,.01Z"/>
    <path class="cls-1" d="M41.57,29.47c-.25,0-.47-.05-.66-.14-.19-.09-.33-.23-.43-.41-.1-.18-.15-.39-.15-.63,0-.29,.06-.55,.18-.79s.28-.43,.5-.58c.21-.15,.47-.22,.76-.22,.21,0,.38,.04,.53,.11,.14,.07,.25,.17,.34,.3,.08,.12,.14,.27,.17,.43,.03,.16,.03,.32,.01,.49,0,.06-.02,.1-.05,.12-.03,.02-.07,.03-.12,.03h-1.95l.04-.29h1.8l-.1,.07c.03-.17,.02-.33-.02-.47-.04-.14-.11-.25-.21-.33-.11-.08-.25-.13-.44-.13-.2,0-.36,.04-.49,.13-.13,.09-.24,.2-.31,.34s-.12,.28-.15,.43l-.02,.13c-.05,.31,0,.56,.14,.75,.15,.19,.37,.29,.68,.29,.13,0,.26-.02,.38-.05,.12-.03,.24-.09,.35-.16,.05-.03,.1-.05,.13-.05,.04,0,.07,.01,.09,.04,.02,.02,.04,.05,.04,.09,0,.04,0,.07-.02,.11-.02,.04-.05,.07-.09,.11-.12,.09-.27,.15-.44,.2-.17,.05-.33,.07-.48,.07Z"/>
  </g>
</svg>